<svg aria-hidden="true" style="position: absolute; width: 0; height: 0; overflow: hidden;" version="1.1" xmlns="http://www.w3.org/2000/svg" xmlns:xlink="http://www.w3.org/1999/xlink">
<defs>
<symbol id="shuffle" viewBox="0 0 24 24">
<path d="M4.707 20.707l15.293-15.293v2.586c0 0.552 0.448 1 1 1s1-0.448 1-1v-5c0-0.136-0.027-0.265-0.076-0.383s-0.121-0.228-0.216-0.323c-0.001-0.001-0.001-0.001-0.002-0.002-0.092-0.092-0.202-0.166-0.323-0.216-0.118-0.049-0.247-0.076-0.383-0.076h-5c-0.552 0-1 0.448-1 1s0.448 1 1 1h2.586l-15.293 15.293c-0.391 0.391-0.391 1.024 0 1.414s1.024 0.391 1.414 0zM14.293 15.707l4.293 4.293h-2.586c-0.552 0-1 0.448-1 1s0.448 1 1 1h5c0.13 0 0.261-0.025 0.383-0.076s0.232-0.125 0.324-0.217c0.096-0.096 0.168-0.206 0.217-0.324s0.076-0.247 0.076-0.383v-5c0-0.552-0.448-1-1-1s-1 0.448-1 1v2.586l-4.293-4.293c-0.391-0.391-1.024-0.391-1.414 0s-0.391 1.024 0 1.414zM3.293 4.707l5 5c0.391 0.391 1.024 0.391 1.414 0s0.391-1.024 0-1.414l-5-5c-0.391-0.391-1.024-0.391-1.414 0s-0.391 1.024 0 1.414z"></path>
</symbol>
<symbol id="arrow-circle-right" viewBox="0 0 32 32">
<path d="M16 3c-7.18 0-13 5.82-13 13s5.82 13 13 13c7.18 0 13-5.82 13-13v0c-0.008-7.177-5.823-12.992-12.999-13h-0.001zM16 27c-6.075 0-11-4.925-11-11s4.925-11 11-11c6.075 0 11 4.925 11 11v0c-0.007 6.072-4.928 10.993-10.999 11h-0.001zM21.707 15.293c0.181 0.181 0.293 0.431 0.293 0.707s-0.112 0.526-0.293 0.707v0l-4 4c-0.181 0.181-0.431 0.293-0.707 0.293-0.553 0-1.001-0.448-1.001-1.001 0-0.276 0.112-0.526 0.293-0.707l2.294-2.293h-7.586c-0.552 0-1-0.448-1-1s0.448-1 1-1v0h7.586l-2.294-2.293c-0.181-0.181-0.293-0.431-0.293-0.707 0-0.553 0.448-1.001 1.001-1.001 0.276 0 0.526 0.112 0.707 0.293v0z"></path>
</symbol>
<symbol id="arrow-fat-line-down" viewBox="0 0 32 32">
<path d="M28.924 16.617c-0.154-0.366-0.51-0.617-0.924-0.617h-5v-7c0-0.552-0.448-1-1-1v0h-12c-0.552 0-1 0.448-1 1v0 7h-5c-0 0-0.001 0-0.001 0-0.552 0-1 0.448-1 1 0 0.276 0.112 0.526 0.293 0.707v0l12 12c0.181 0.181 0.431 0.293 0.707 0.293s0.526-0.112 0.707-0.293v0l12-12c0.181-0.181 0.293-0.431 0.293-0.707 0-0.138-0.028-0.27-0.079-0.39l0.002 0.007zM16 27.586l-9.586-9.586h3.586c0.552 0 1-0.448 1-1v0-7h10v7c0 0.552 0.448 1 1 1v0h3.586zM9 5c0-0.552 0.448-1 1-1v0h12c0.552 0 1 0.448 1 1s-0.448 1-1 1v0h-12c-0.552 0-1-0.448-1-1v0z"></path>
</symbol>
<symbol id="building" viewBox="0 0 32 32">
<path d="M29 28h-3v-24h1c0.552 0 1-0.448 1-1s-0.448-1-1-1v0h-22c-0.552 0-1 0.448-1 1s0.448 1 1 1v0h1v24h-3c-0.552 0-1 0.448-1 1s0.448 1 1 1v0h26c0.552 0 1-0.448 1-1s-0.448-1-1-1v0zM8 4h16v24h-4v-5c0-0.552-0.448-1-1-1v0h-6c-0.552 0-1 0.448-1 1v0 5h-4zM18 28h-4v-4h4zM11 8c0-0.552 0.448-1 1-1v0h2c0.552 0 1 0.448 1 1s-0.448 1-1 1v0h-2c-0.552 0-1-0.448-1-1v0zM17 8c0-0.552 0.448-1 1-1v0h2c0.552 0 1 0.448 1 1s-0.448 1-1 1v0h-2c-0.552 0-1-0.448-1-1v0zM11 13c0-0.552 0.448-1 1-1v0h2c0.552 0 1 0.448 1 1s-0.448 1-1 1v0h-2c-0.552 0-1-0.448-1-1v0zM17 13c0-0.552 0.448-1 1-1v0h2c0.552 0 1 0.448 1 1s-0.448 1-1 1v0h-2c-0.552 0-1-0.448-1-1v0zM11 18c0-0.552 0.448-1 1-1v0h2c0.552 0 1 0.448 1 1s-0.448 1-1 1v0h-2c-0.552 0-1-0.448-1-1v0zM17 18c0-0.552 0.448-1 1-1v0h2c0.552 0 1 0.448 1 1s-0.448 1-1 1v0h-2c-0.552 0-1-0.448-1-1v0z"></path>
</symbol>
<symbol id="calendar" viewBox="0 0 32 32">
<path d="M26 4h-3v-1c0-0.552-0.448-1-1-1s-1 0.448-1 1v0 1h-10v-1c0-0.552-0.448-1-1-1s-1 0.448-1 1v0 1h-3c-1.105 0-2 0.895-2 2v0 20c0 1.105 0.895 2 2 2v0h20c1.105 0 2-0.895 2-2v0-20c0-1.105-0.895-2-2-2v0zM9 6v1c0 0.552 0.448 1 1 1s1-0.448 1-1v0-1h10v1c0 0.552 0.448 1 1 1s1-0.448 1-1v0-1h3v4h-20v-4zM26 26h-20v-14h20v14zM14 15v8c0 0.552-0.448 1-1 1s-1-0.448-1-1v0-6.383l-0.553 0.277c-0.13 0.067-0.284 0.106-0.447 0.106-0.553 0-1.001-0.448-1.001-1.001 0-0.39 0.223-0.727 0.547-0.892l0.006-0.003 2-1c0.13-0.067 0.284-0.106 0.447-0.106 0.552 0 1 0.448 1 1 0 0 0 0.001 0 0.001v-0zM21.395 18.806l-2.395 3.194h2c0.552 0 1 0.448 1 1s-0.448 1-1 1v0h-4c-0.552 0-1-0.448-1-1 0-0.226 0.075-0.435 0.202-0.602l-0.002 0.003 3.598-4.796c0.125-0.165 0.2-0.374 0.2-0.601 0-0.552-0.448-1-1-1-0.367 0-0.688 0.198-0.862 0.492l-0.003 0.005c-0.173 0.314-0.501 0.523-0.879 0.523-0.552 0-1-0.448-1-1 0-0.193 0.055-0.374 0.15-0.527l-0.002 0.004c0.529-0.902 1.493-1.499 2.598-1.499 1.657 0 2.999 1.343 3 2.999v0c0 0.003 0 0.006 0 0.010 0 0.678-0.227 1.304-0.61 1.804l0.005-0.007z"></path>
</symbol>
<symbol id="chart-line-up" viewBox="0 0 32 32">
<path d="M29 26c0 0.552-0.448 1-1 1v0h-24c-0.552 0-1-0.448-1-1v0-20c0-0.552 0.448-1 1-1s1 0.448 1 1v0 13.586l6.293-6.294c0.181-0.181 0.431-0.293 0.707-0.293s0.527 0.112 0.707 0.293l3.293 3.294 6.586-6.586h-2.586c-0.552 0-1-0.448-1-1s0.448-1 1-1v0h5c0.552 0 1 0.448 1 1v0 5c0 0.552-0.448 1-1 1s-1-0.448-1-1v0-2.586l-7.293 7.294c-0.181 0.181-0.431 0.293-0.707 0.293s-0.527-0.112-0.707-0.293l-3.293-3.294-7 7v2.586h23c0.552 0 1 0.448 1 1v0z"></path>
</symbol>
<symbol id="chats-teardrop" viewBox="0 0 32 32">
<path d="M21.196 9.074c-1.566-3.6-5.093-6.072-9.196-6.072-5.522 0-9.999 4.476-10 9.998v8c0 1.105 0.895 2 2 2v0h6.834c1.587 3.559 5.091 5.995 9.166 6h8.001c1.105 0 2-0.895 2-2v0-8c-0.001-5.1-3.82-9.309-8.755-9.921l-0.049-0.005zM4 13c0-4.418 3.582-8 8-8s8 3.582 8 8c0 4.418-3.582 8-8 8v0h-8zM28 27h-8c-2.967-0.003-5.556-1.618-6.939-4.015l-0.021-0.039c5.056-0.54 8.96-4.783 8.96-9.938 0-0.634-0.059-1.255-0.172-1.857l0.010 0.062c3.56 0.861 6.163 4.020 6.163 7.786 0 0 0 0 0 0v0z"></path>
</symbol>
<symbol id="check-circle" viewBox="0 0 32 32">
<path d="M21.707 12.293c0.181 0.181 0.293 0.431 0.293 0.707s-0.112 0.527-0.293 0.707v0l-7 7c-0.181 0.181-0.431 0.293-0.707 0.293s-0.527-0.112-0.707-0.293v0l-3-3c-0.181-0.181-0.293-0.431-0.293-0.707 0-0.553 0.448-1.001 1.001-1.001 0.276 0 0.526 0.112 0.707 0.293l2.293 2.294 6.293-6.294c0.181-0.181 0.431-0.293 0.707-0.293s0.526 0.112 0.707 0.293v0zM29 16c0 7.18-5.82 13-13 13s-13-5.82-13-13c0-7.18 5.82-13 13-13v0c7.177 0.008 12.992 5.823 13 12.999v0.001zM27 16c0-6.075-4.925-11-11-11s-11 4.925-11 11c0 6.075 4.925 11 11 11v0c6.072-0.007 10.993-4.928 11-10.999v-0.001z"></path>
</symbol>
<symbol id="clock" viewBox="0 0 32 32">
<path d="M16 3c-7.18 0-13 5.82-13 13s5.82 13 13 13c7.18 0 13-5.82 13-13v0c-0.008-7.177-5.823-12.992-12.999-13h-0.001zM16 27c-6.075 0-11-4.925-11-11s4.925-11 11-11c6.075 0 11 4.925 11 11v0c-0.007 6.072-4.928 10.993-10.999 11h-0.001zM24 16c0 0.552-0.448 1-1 1v0h-7c-0.552 0-1-0.448-1-1v0-7c0-0.552 0.448-1 1-1s1 0.448 1 1v0 6h6c0.552 0 1 0.448 1 1v0z"></path>
</symbol>
<symbol id="code-bold" viewBox="0 0 32 32">
<path d="M8.96 12.152l-4.617 3.848 4.617 3.848c0.336 0.277 0.549 0.694 0.549 1.16 0 0.828-0.672 1.5-1.5 1.5-0.37 0-0.71-0.134-0.971-0.357l0.002 0.002-6-5c-0.331-0.277-0.54-0.69-0.54-1.152s0.209-0.875 0.538-1.151l0.002-0.002 6-5c0.257-0.212 0.589-0.34 0.951-0.34 0.828 0 1.5 0.672 1.5 1.5 0 0.458-0.205 0.868-0.529 1.143l-0.002 0.002zM30.96 14.848l-6-5c-0.26-0.221-0.599-0.355-0.969-0.355-0.828 0-1.5 0.672-1.5 1.5 0 0.466 0.213 0.883 0.547 1.158l0.003 0.002 4.617 3.848-4.617 3.848c-0.336 0.277-0.549 0.694-0.549 1.16 0 0.828 0.672 1.5 1.5 1.5 0.37 0 0.71-0.134 0.971-0.357l-0.002 0.002 6-5c0.331-0.277 0.54-0.69 0.54-1.152s-0.209-0.875-0.538-1.151l-0.002-0.002zM20.512 3.59c-0.152-0.057-0.329-0.090-0.513-0.090-0.645 0-1.194 0.407-1.406 0.977l-0.003 0.010-8 22c-0.057 0.152-0.090 0.328-0.090 0.512 0 0.645 0.406 1.194 0.977 1.406l0.010 0.003c0.152 0.058 0.327 0.091 0.511 0.091 0.001 0 0.001 0 0.002 0h-0c0 0 0 0 0 0 0.645 0 1.194-0.407 1.406-0.977l0.003-0.010 8-22c0.057-0.152 0.090-0.329 0.090-0.513 0-0.645-0.407-1.194-0.977-1.406l-0.010-0.003z"></path>
</symbol>
<symbol id="credit-card" viewBox="0 0 32 32">
<path d="M28 6h-24c-1.105 0-2 0.895-2 2v0 16c0 1.105 0.895 2 2 2v0h24c1.105 0 2-0.895 2-2v0-16c0-1.105-0.895-2-2-2v0zM28 8v3h-24v-3zM28 24h-24v-11h24v11zM26 21c0 0.552-0.448 1-1 1v0h-4c-0.552 0-1-0.448-1-1s0.448-1 1-1v0h4c0.552 0 1 0.448 1 1v0zM18 21c0 0.552-0.448 1-1 1v0h-2c-0.552 0-1-0.448-1-1s0.448-1 1-1v0h2c0.552 0 1 0.448 1 1v0z"></path>
</symbol>
<symbol id="desktop-bold" viewBox="0 0 32 32">
<path d="M26 4.5h-20c-1.933 0-3.5 1.567-3.5 3.5v0 13.5c0 1.933 1.567 3.5 3.5 3.5v0h8.5v1.5h-2.5c-0.828 0-1.5 0.672-1.5 1.5s0.672 1.5 1.5 1.5v0h8c0.828 0 1.5-0.672 1.5-1.5s-0.672-1.5-1.5-1.5v0h-2.5v-1.5h8.5c1.933 0 3.5-1.567 3.5-3.5v0-13.5c0-1.933-1.567-3.5-3.5-3.5v0zM6 7.5h20c0.276 0 0.5 0.224 0.5 0.5v0 9h-21v-9c0-0.276 0.224-0.5 0.5-0.5v0zM26 22h-20c-0.276 0-0.5-0.224-0.5-0.5v0-1.5h21v1.5c0 0.276-0.224 0.5-0.5 0.5v0z"></path>
</symbol>
<symbol id="facebook-logo-fill" viewBox="0 0 32 32">
<path d="M29 16c-0.009 6.628-4.969 12.095-11.38 12.901l-0.064 0.007c-0.017 0.002-0.036 0.003-0.056 0.003-0.276 0-0.5-0.224-0.5-0.5 0-0.001 0-0.002 0-0.003v0-9.407h3c0.001 0 0.001 0 0.002 0 0.552 0 1-0.448 1-1 0-0.023-0.001-0.046-0.002-0.069l0 0.003c-0.046-0.525-0.484-0.934-1.017-0.934-0.005 0-0.010 0-0.014 0h-2.968v-3c0-1.105 0.895-2 2-2v0h2c0.001 0 0.001 0 0.002 0 0.552 0 1-0.448 1-1 0-0.023-0.001-0.046-0.002-0.069l0 0.003c-0.046-0.525-0.484-0.934-1.018-0.934-0.006 0-0.011 0-0.017 0h-1.965c-2.209 0-4 1.791-4 4v0 3h-3c-0.001 0-0.001 0-0.002 0-0.552 0-1 0.448-1 1 0 0.023 0.001 0.046 0.002 0.069l-0-0.003c0.046 0.525 0.484 0.934 1.018 0.934 0.006 0 0.011-0 0.017-0h2.965v9.41c0 0.001 0 0.002 0 0.003 0 0.276-0.224 0.5-0.5 0.5-0.019 0-0.039-0.001-0.057-0.003l0.002 0c-6.481-0.812-11.445-6.288-11.445-12.923 0-0.167 0.003-0.334 0.009-0.499l-0.001 0.024c0.25-6.75 5.717-12.238 12.473-12.5 0.15-0.006 0.327-0.010 0.504-0.010 7.182 0 13.006 5.818 13.015 12.998v0.001z"></path>
</symbol>
<symbol id="globe-hemisphere-east-fill" viewBox="0 0 32 32">
<path d="M16 3c-7.18 0-13 5.82-13 13s5.82 13 13 13c7.18 0 13-5.82 13-13v0c-0.008-7.177-5.823-12.992-12.999-13h-0.001zM7.786 23.309l0.315-0.206c0.543-0.362 0.896-0.97 0.899-1.661v-0l0.026-4.529 2.62-3.912c0.011 0.009 0.025 0.018 0.038 0.026l0.002 0.001 2.459 1.609c0.32 0.228 0.718 0.365 1.149 0.365 0.095 0 0.189-0.007 0.28-0.020l-0.011 0.001 3.936-0.534c0.503-0.069 0.938-0.316 1.248-0.674l0.002-0.002 2.771-3.22c0.298-0.347 0.479-0.802 0.479-1.298 0-0.001 0-0.003 0-0.004v0-0.791c1.859 1.963 3.001 4.621 3.001 7.545 0 1.205-0.194 2.364-0.552 3.449l0.022-0.078-2.017-1.845c-0.355-0.326-0.83-0.527-1.352-0.527-0.276 0-0.538 0.056-0.777 0.157l0.013-0.005-3.808 1.581c-0.639 0.273-1.102 0.851-1.209 1.545l-0.001 0.011-0.299 2.024c-0.014 0.088-0.021 0.189-0.021 0.292 0 0.924 0.627 1.702 1.479 1.931l0.014 0.003 2.683 0.707 0.295 0.296c-1.569 0.916-3.455 1.457-5.467 1.457-3.264 0-6.195-1.423-8.207-3.683l-0.010-0.011z"></path>
</symbol>
<symbol id="linkedin-logo-fill" viewBox="0 0 32 32">
<path d="M27 3h-22c-1.105 0-2 0.895-2 2v0 22c0 1.105 0.895 2 2 2v0h22c1.105 0 2-0.895 2-2v0-22c0-1.105-0.895-2-2-2v0zM12 22c0 0.552-0.448 1-1 1s-1-0.448-1-1v0-8c0-0.552 0.448-1 1-1s1 0.448 1 1v0zM11 12c-0.828 0-1.5-0.672-1.5-1.5s0.672-1.5 1.5-1.5c0.828 0 1.5 0.672 1.5 1.5v0c0 0.828-0.672 1.5-1.5 1.5v0zM23 22c0 0.552-0.448 1-1 1s-1-0.448-1-1v0-4.5c0-1.381-1.119-2.5-2.5-2.5s-2.5 1.119-2.5 2.5v0 4.5c0 0.552-0.448 1-1 1s-1-0.448-1-1v0-8c0.003-0.55 0.449-0.995 1-0.995 0.472 0 0.867 0.326 0.972 0.766l0.001 0.007c0.708-0.486 1.583-0.776 2.526-0.776 2.485 0 4.499 2.014 4.5 4.498v0z"></path>
</symbol>
<symbol id="map-pin-fill" viewBox="0 0 32 32">
<path d="M16 2c-6.072 0.007-10.993 4.928-11 10.999v0.001c0 9.413 10 16.521 10.426 16.819 0.16 0.113 0.359 0.181 0.574 0.181s0.414-0.068 0.577-0.183l-0.003 0.002c0.426-0.297 10.426-7.406 10.426-16.819-0.007-6.072-4.928-10.993-10.999-11h-0.001zM16 9c2.209 0 4 1.791 4 4s-1.791 4-4 4c-2.209 0-4-1.791-4-4v0c0-2.209 1.791-4 4-4v0z"></path>
</symbol>
<symbol id="money-fill" viewBox="0 0 32 32">
<path d="M21 16c0 2.761-2.239 5-5 5s-5-2.239-5-5c0-2.761 2.239-5 5-5v0c2.761 0 5 2.239 5 5v0zM31 8v16c0 0.552-0.448 1-1 1v0h-28c-0.552 0-1-0.448-1-1v0-16c0-0.552 0.448-1 1-1v0h28c0.552 0 1 0.448 1 1v0zM29 13.794c-2.311-0.699-4.095-2.482-4.781-4.743l-0.013-0.050h-16.413c-0.699 2.311-2.482 4.095-4.743 4.781l-0.050 0.013v4.412c2.311 0.699 4.095 2.482 4.781 4.743l0.013 0.050h16.413c0.699-2.311 2.482-4.095 4.743-4.781l0.050-0.013z"></path>
</symbol>
<symbol id="notepad" viewBox="0 0 32 32">
<path d="M21 16c0 0.552-0.448 1-1 1v0h-8c-0.552 0-1-0.448-1-1s0.448-1 1-1v0h8c0.552 0 1 0.448 1 1v0zM20 19h-8c-0.552 0-1 0.448-1 1s0.448 1 1 1v0h8c0.552 0 1-0.448 1-1s-0.448-1-1-1v0zM27 5v20c0 2.209-1.791 4-4 4v0h-14c-2.209 0-4-1.791-4-4v0-20c0-0.552 0.448-1 1-1v0h3v-1c0-0.552 0.448-1 1-1s1 0.448 1 1v0 1h4v-1c0-0.552 0.448-1 1-1s1 0.448 1 1v0 1h4v-1c0-0.552 0.448-1 1-1s1 0.448 1 1v0 1h3c0.552 0 1 0.448 1 1v0zM25 6h-2v1c0 0.552-0.448 1-1 1s-1-0.448-1-1v0-1h-4v1c0 0.552-0.448 1-1 1s-1-0.448-1-1v0-1h-4v1c0 0.552-0.448 1-1 1s-1-0.448-1-1v0-1h-2v19c0 1.105 0.895 2 2 2v0h14c1.105 0 2-0.895 2-2v0z"></path>
</symbol>
<symbol id="palette-fill" viewBox="0 0 32 32">
<path d="M25.096 6.736c-2.331-2.309-5.541-3.736-9.083-3.736-0.005 0-0.009 0-0.014 0h-0.133c-7.122 0.076-12.866 5.867-12.866 12.999 0 0 0 0 0 0.001v-0c0 5.375 3.322 9.883 8.67 11.771 0.396 0.144 0.853 0.228 1.33 0.228 2.209 0 3.999-1.79 4-3.999v-0c0-1.105 0.895-2 2-2v0h5.776c0.006 0 0.012 0 0.019 0 1.889 0 3.47-1.317 3.876-3.083l0.005-0.027c0.206-0.869 0.324-1.866 0.324-2.891 0-0.038-0-0.076-0-0.115l0 0.006c-0.028-3.591-1.517-6.828-3.901-9.151l-0.003-0.003zM10.5 21c-0.828 0-1.5-0.672-1.5-1.5s0.672-1.5 1.5-1.5c0.828 0 1.5 0.672 1.5 1.5v0c0 0.828-0.672 1.5-1.5 1.5v0zM10.5 14c-0.828 0-1.5-0.672-1.5-1.5s0.672-1.5 1.5-1.5c0.828 0 1.5 0.672 1.5 1.5v0c0 0.828-0.672 1.5-1.5 1.5v0zM16 11c-0.828 0-1.5-0.672-1.5-1.5s0.672-1.5 1.5-1.5c0.828 0 1.5 0.672 1.5 1.5v0c0 0.828-0.672 1.5-1.5 1.5v0zM21.5 14c-0.828 0-1.5-0.672-1.5-1.5s0.672-1.5 1.5-1.5c0.828 0 1.5 0.672 1.5 1.5v0c0 0.828-0.672 1.5-1.5 1.5v0z"></path>
</symbol>
<symbol id="percent" viewBox="0 0 32 32">
<path d="M25.707 7.705l-18 18c-0.181 0.181-0.431 0.293-0.707 0.293-0.553 0-1.001-0.448-1.001-1.001 0-0.276 0.112-0.526 0.293-0.707v0l18-18c0.181-0.181 0.431-0.293 0.707-0.293 0.552 0 1 0.448 1 1 0 0.276-0.112 0.526-0.293 0.707v0zM6.317 12.68c-0.814-0.814-1.318-1.939-1.318-3.182 0-2.485 2.015-4.5 4.5-4.5 1.243 0 2.368 0.504 3.183 1.318v0c0.814 0.814 1.318 1.939 1.318 3.182 0 2.485-2.015 4.5-4.5 4.5-1.243 0-2.368-0.504-3.183-1.318v0zM7 9.5c0.001 1.38 1.12 2.498 2.5 2.498s2.5-1.119 2.5-2.5c0-0.691-0.28-1.316-0.732-1.768v0c-0.452-0.452-1.077-0.732-1.768-0.732-1.381 0-2.5 1.119-2.5 2.5 0 0.001 0 0.001 0 0.002v-0zM27 22.5c-0.001 2.485-2.015 4.499-4.5 4.499s-4.5-2.015-4.5-4.5 2.015-4.5 4.5-4.5c1.243 0 2.368 0.504 3.183 1.319v0c0.814 0.81 1.318 1.931 1.318 3.169 0 0.005 0 0.009-0 0.014v-0.001zM25 22.5c0-0 0-0 0-0.001 0-1.381-1.119-2.5-2.5-2.5s-2.5 1.119-2.5 2.5c0 1.381 1.119 2.5 2.5 2.5 0.69 0 1.315-0.28 1.767-0.732v0c0.452-0.45 0.733-1.073 0.733-1.761 0-0.002 0-0.004 0-0.007v0z"></path>
</symbol>
<symbol id="phone" viewBox="0 0 32 32">
<path d="M27.796 19.808l-5.905-2.646c-0.232-0.102-0.502-0.161-0.787-0.161-0.414 0-0.798 0.126-1.117 0.341l0.007-0.005c-0.036 0.024-0.066 0.047-0.095 0.071l0.002-0.001-3.043 2.594c-1.928-0.936-3.918-2.911-4.854-4.814l2.598-3.089c0.025-0.031 0.049-0.063 0.071-0.096 0.205-0.309 0.326-0.688 0.326-1.095 0-0.285-0.059-0.555-0.166-0.8l0.005 0.013v-0.015l-2.646-5.899c-0.316-0.715-1.018-1.205-1.835-1.205-0.085 0-0.17 0.005-0.252 0.016l0.010-0.001c-3.469 0.47-6.115 3.412-6.115 6.972 0 0.004 0 0.009 0 0.013v-0.001c0 9.925 8.075 18 18 18 0.004 0 0.008 0 0.013 0 3.56 0 6.503-2.646 6.968-6.079l0.004-0.036c0.009-0.073 0.015-0.157 0.015-0.243 0-0.817-0.489-1.519-1.191-1.83l-0.013-0.005zM22 26c-8.833-0.010-15.99-7.167-16-15.999v-0.001c-0-0.006-0-0.013-0-0.019 0-2.54 1.885-4.64 4.333-4.978l0.026-0.003c-0 0.002-0 0.005-0 0.008s0 0.005 0 0.008l-0-0 2.625 5.875-2.584 3.092c-0.025 0.029-0.048 0.060-0.069 0.093l-0.002 0.003c-0.203 0.308-0.324 0.686-0.324 1.092 0 0.317 0.074 0.616 0.205 0.882l-0.005-0.012c1.133 2.316 3.466 4.633 5.807 5.764 0.251 0.122 0.547 0.194 0.859 0.194 0.414 0 0.798-0.126 1.117-0.341l-0.007 0.005c0.035-0.024 0.065-0.047 0.094-0.071l-0.002 0.001 3.039-2.593 5.875 2.631s0.010 0 0.014 0c-0.336 2.479-2.439 4.369-4.983 4.369-0.006 0-0.012 0-0.018-0h0.001z"></path>
</symbol>
<symbol id="play-circle" viewBox="0 0 32 32">
<path d="M16 3c-7.18 0-13 5.82-13 13s5.82 13 13 13c7.18 0 13-5.82 13-13v0c-0.008-7.177-5.823-12.992-12.999-13h-0.001zM16 27c-6.075 0-11-4.925-11-11s4.925-11 11-11c6.075 0 11 4.925 11 11v0c-0.007 6.072-4.928 10.993-10.999 11h-0.001zM22.030 15.152l-8-5c-0.15-0.095-0.334-0.152-0.53-0.152-0.552 0-1 0.447-1 0.999v10c0 0.552 0.448 1 1 1 0.196 0 0.38-0.057 0.534-0.154l-0.004 0.002 8-5c0.284-0.18 0.469-0.492 0.469-0.848s-0.186-0.668-0.465-0.845l-0.004-0.002zM14.5 19.196v-6.393l5.114 3.196z"></path>
</symbol>
<symbol id="screwdriver-fill" viewBox="0 0 32 32">
<path d="M29.154 2.844c-1.141-1.14-2.717-1.844-4.457-1.844s-3.316 0.705-4.457 1.844l-6.655 6.656c-0.361 0.36-0.585 0.859-0.585 1.409 0 0.001 0 0.002 0 0.003v-0 2.088h-2.104c-0.456 0.001-0.875 0.153-1.213 0.409l0.005-0.004c-0.038 0.029-0.071 0.058-0.102 0.090l-1 1c-0.362 0.362-0.586 0.862-0.586 1.414s0.224 1.052 0.586 1.414l2.338 2.339-9.625 9.631c-0.181 0.181-0.293 0.431-0.293 0.707 0 0.553 0.448 1.001 1.001 1.001 0.276 0 0.526-0.112 0.708-0.293v0l9.625-9.633 2.339 2.339c0.362 0.362 0.862 0.585 1.414 0.585s1.052-0.224 1.414-0.585l1-1c0.032-0.032 0.061-0.066 0.088-0.101l0.002-0.002c0.253-0.331 0.406-0.752 0.406-1.207v-2.104h2.086c0.001 0 0.003 0 0.004 0 0.551 0 1.049-0.225 1.409-0.587l6.654-6.654c1.141-1.141 1.846-2.717 1.846-4.457s-0.706-3.317-1.846-4.457v0zM25.707 7.705l-7 7c-0.181 0.181-0.431 0.293-0.707 0.293-0.552 0-1-0.448-1-1 0-0.276 0.112-0.526 0.293-0.707l7-7c0.181-0.181 0.431-0.293 0.707-0.293 0.553 0 1.001 0.448 1.001 1.001 0 0.276-0.112 0.526-0.293 0.708v0z"></path>
</symbol>
<symbol id="shield-check-fill" viewBox="0 0 32 32">
<path d="M26 5h-20c-1.105 0-2 0.895-2 2v0 7c0 6.59 3.19 10.584 5.866 12.774 2.883 2.358 5.75 3.157 5.875 3.191 0.079 0.022 0.169 0.035 0.262 0.035s0.184-0.013 0.27-0.037l-0.007 0.002c0.125-0.034 2.989-0.834 5.875-3.191 2.669-2.19 5.859-6.184 5.859-12.774v-7c0-1.105-0.895-2-2-2v0zM21.71 13.707l-7 7c-0.181 0.181-0.431 0.293-0.707 0.293s-0.527-0.112-0.707-0.293v0l-3-3c-0.181-0.181-0.293-0.431-0.293-0.707 0-0.553 0.448-1.001 1.001-1.001 0.276 0 0.526 0.112 0.707 0.293v0l2.29 2.294 6.293-6.294c0.181-0.181 0.431-0.293 0.707-0.293 0.553 0 1.001 0.448 1.001 1.001 0 0.276-0.112 0.526-0.293 0.707v0z"></path>
</symbol>
<symbol id="shopping-cart-fill" viewBox="0 0 32 32">
<path d="M28.767 7.359c-0.185-0.22-0.46-0.359-0.767-0.359-0 0-0 0-0 0h-20.165l-0.76-4.179c-0.088-0.47-0.495-0.821-0.984-0.821h-3.091c-0.552 0-1 0.448-1 1s0.448 1 1 1v0h2.25l3.195 17.536c0.101 0.544 0.336 1.022 0.67 1.413l-0.003-0.004c-0.684 0.64-1.111 1.549-1.111 2.558 0 1.933 1.567 3.5 3.5 3.5s3.5-1.567 3.5-3.5c0-0.546-0.125-1.063-0.348-1.524l0.009 0.021h5.678c-0.214 0.437-0.339 0.952-0.339 1.495 0 0.002 0 0.003 0 0.005v-0c0 1.933 1.567 3.5 3.5 3.5s3.5-1.567 3.5-3.5c0-1.933-1.567-3.5-3.5-3.5v0h-12.104c-0.489-0-0.896-0.351-0.983-0.815l-0.001-0.006-0.396-2.179h14.5c1.467-0 2.688-1.054 2.948-2.445l0.003-0.019 1.52-8.357c0.010-0.053 0.015-0.113 0.015-0.175 0-0.246-0.089-0.472-0.237-0.646l0.001 0.001zM13 25.5c0 0.828-0.672 1.5-1.5 1.5s-1.5-0.672-1.5-1.5c0-0.828 0.672-1.5 1.5-1.5v0c0.828 0 1.5 0.672 1.5 1.5v0zM25 25.5c0 0.828-0.672 1.5-1.5 1.5s-1.5-0.672-1.5-1.5c0-0.828 0.672-1.5 1.5-1.5v0c0.828 0 1.5 0.672 1.5 1.5v0z"></path>
</symbol>
<symbol id="star" viewBox="0 0 32 32">
<path d="M29.898 12.158c-0.258-0.776-0.946-1.338-1.775-1.407l-0.007-0.001-7.375-0.595-2.848-6.886c-0.314-0.751-1.042-1.269-1.892-1.269s-1.578 0.518-1.887 1.255l-0.005 0.013-2.845 6.885-7.379 0.596c-1.059 0.092-1.884 0.975-1.884 2.050 0 0.621 0.275 1.178 0.71 1.555l0.003 0.002 5.625 4.854-1.714 7.258c-0.037 0.145-0.058 0.312-0.058 0.484 0 1.131 0.917 2.047 2.047 2.047 0.397 0 0.768-0.113 1.082-0.309l-0.009 0.005 6.313-3.885 6.316 3.885c0.303 0.187 0.671 0.298 1.065 0.298 1.132 0 2.050-0.918 2.050-2.050 0-0.169-0.020-0.333-0.059-0.49l0.003 0.014-1.72-7.259 5.625-4.854c0.441-0.379 0.719-0.938 0.719-1.561 0-0.228-0.037-0.447-0.106-0.652l0.004 0.014zM27.98 12.841l-6.088 5.25c-0.213 0.184-0.347 0.455-0.347 0.757 0 0.082 0.010 0.162 0.029 0.238l-0.001-0.007 1.86 7.85c0.003 0.006 0.004 0.012 0.004 0.019 0 0.018-0.010 0.033-0.025 0.041l-0 0c-0.023 0.017-0.029 0.014-0.047 0l-6.84-4.206c-0.149-0.093-0.33-0.148-0.524-0.148s-0.375 0.055-0.528 0.151l0.004-0.002-6.84 4.209c-0.019 0.011-0.024 0.015-0.047 0-0.015-0.008-0.025-0.023-0.025-0.041 0-0.007 0.001-0.013 0.004-0.019l-0 0 1.86-7.85c0.017-0.069 0.027-0.149 0.027-0.231 0-0.302-0.134-0.573-0.346-0.756l-0.001-0.001-6.088-5.25c-0.015-0.012-0.029-0.024-0.016-0.063s0.022-0.034 0.041-0.036l7.99-0.645c0.381-0.034 0.698-0.276 0.838-0.611l0.002-0.007 3.078-7.451c0.010-0.021 0.014-0.031 0.044-0.031s0.034 0.010 0.044 0.031l3.085 7.451c0.144 0.341 0.462 0.583 0.84 0.615l0.004 0 7.99 0.645c0.019 0 0.030 0 0.041 0.036s0 0.050-0.020 0.063z"></path>
</symbol>
<symbol id="star-fill" viewBox="0 0 32 32">
<path d="M29.286 14.356l-5.625 4.854 1.714 7.259c0.036 0.144 0.057 0.309 0.057 0.478 0 1.132-0.918 2.050-2.050 2.050-0.395 0-0.765-0.112-1.078-0.306l0.009 0.005-6.313-3.885-6.316 3.885c-0.303 0.187-0.671 0.298-1.065 0.298-1.132 0-2.050-0.918-2.050-2.050 0-0.169 0.020-0.333 0.059-0.49l-0.003 0.014 1.72-7.259-5.625-4.854c-0.437-0.379-0.712-0.936-0.712-1.557 0-1.073 0.821-1.954 1.869-2.049l0.008-0.001 7.375-0.595 2.845-6.885c0.314-0.751 1.042-1.269 1.892-1.269s1.578 0.518 1.887 1.255l0.005 0.013 2.844 6.885 7.375 0.595c1.059 0.092 1.884 0.975 1.884 2.050 0 0.621-0.275 1.178-0.71 1.555l-0.003 0.002z"></path>
</symbol>
<symbol id="twitter-logo-fill" viewBox="0 0 32 32">
<path d="M30.707 9.707l-3.738 3.738c-0.755 8.752-8.136 15.555-16.97 15.555-1.815 0-3.311-0.288-4.447-0.855-0.916-0.459-1.291-0.95-1.385-1.090-0.105-0.156-0.168-0.348-0.168-0.555 0-0.426 0.267-0.79 0.642-0.934l0.007-0.002c0.032-0.012 3.030-1.164 4.934-3.355-1.052-0.869-1.956-1.865-2.704-2.976l-0.031-0.049c-1.55-2.301-3.285-6.299-2.75-12.273 0.047-0.513 0.475-0.911 0.996-0.911 0.278 0 0.529 0.113 0.71 0.296l0 0c0.044 0.044 4.16 4.138 9.192 5.465v-0.761c0-0.004-0-0.009-0-0.014 0-1.673 0.687-3.186 1.794-4.272l0.001-0.001c1.060-1.058 2.523-1.713 4.14-1.713 0.029 0 0.057 0 0.086 0.001l-0.004-0c2.2 0.022 4.117 1.209 5.168 2.972l0.015 0.028h3.804c0 0 0 0 0.001 0 0.552 0 1 0.448 1 1 0 0.276-0.112 0.527-0.293 0.707v0z"></path>
</symbol>
<symbol id="user" viewBox="0 0 32 32">
<path d="M28.865 26.5c-1.904-3.291-4.838-5.651-8.261-6.77 2.651-1.598 4.396-4.462 4.396-7.733 0-4.971-4.029-9-9-9s-9 4.029-9 9c0 3.271 1.745 6.135 4.356 7.711l0.040 0.023c-3.424 1.117-6.357 3.477-8.261 6.77-0.093 0.149-0.148 0.329-0.148 0.523 0 0.552 0.448 1 1 1 0.377 0 0.706-0.209 0.876-0.518l0.003-0.005c2.355-4.070 6.517-6.5 11.134-6.5s8.779 2.43 11.134 6.5c0.173 0.314 0.501 0.523 0.879 0.523 0.552 0 1-0.448 1-1 0-0.193-0.055-0.374-0.15-0.527l0.002 0.004zM9 12c0-3.866 3.134-7 7-7s7 3.134 7 7c0 3.866-3.134 7-7 7v0c-3.864-0.004-6.996-3.136-7-7v-0z"></path>
</symbol>
<symbol id="youtube-logo-fill" viewBox="0 0 32 32">
<path d="M29.291 8.69c-0.247-0.944-0.917-1.693-1.791-2.043l-0.020-0.007c-4.285-1.655-11.105-1.64-11.48-1.64s-7.195-0.015-11.48 1.64c-0.894 0.357-1.564 1.106-1.807 2.029l-0.005 0.021c-0.324 1.248-0.709 3.527-0.709 7.31s0.385 6.063 0.709 7.31c0.247 0.944 0.917 1.694 1.791 2.044l0.020 0.007c4.105 1.584 10.53 1.639 11.398 1.639h0.165c0.867 0 7.296-0.055 11.398-1.639 0.894-0.358 1.565-1.107 1.807-2.030l0.005-0.021c0.324-1.25 0.709-3.527 0.709-7.31s-0.385-6.063-0.709-7.31zM20.074 16.815l-5 3.5c-0.16 0.113-0.359 0.181-0.574 0.181-0.551 0-0.998-0.445-1-0.996v-7c0-0.552 0.448-1 1-1 0.215 0 0.414 0.068 0.577 0.183l-0.003-0.002 5 3.5c0.259 0.183 0.426 0.482 0.426 0.819s-0.167 0.636-0.423 0.817l-0.003 0.002z"></path>
</symbol>
</defs>
</svg>
